<svg width="10" height="18" viewBox="0 0 10 18" fill="none" xmlns="http://www.w3.org/2000/svg">
<path d="M8.53174 2.54004L8.03271 2.50879C7.68411 2.48691 7.33504 2.50937 7.05518 2.55664C6.78928 2.65602 6.54044 2.78923 6.33643 2.93652C6.01566 3.21054 5.76021 3.5516 5.58545 3.93457V8.4502H6.58545L6.58545 10.4307H5.58545L5.58545 13.9756C5.76204 14.3583 6.01798 14.6946 6.31787 14.9502C6.54728 15.119 6.79661 15.2539 7.00537 15.3369C7.34603 15.4045 7.69365 15.4311 8.04053 15.4121L8.53955 15.3848L8.56689 15.8838L8.62158 16.8828L8.64893 17.3818L8.1499 17.4092C7.61448 17.4386 7.07875 17.3979 6.49072 17.2705L6.45947 17.2637L6.4292 17.252C5.95958 17.0843 5.51794 16.8494 5.09619 16.5361L5.07471 16.5186C4.90662 16.3782 4.74902 16.226 4.60205 16.0654C4.53109 16.1479 4.45806 16.2295 4.38135 16.3086L4.13525 16.5469L4.11865 16.5625L4.10107 16.5762C3.74097 16.8505 3.34217 17.0658 2.88721 17.2246L2.68799 17.2891L2.66553 17.2959L2.64209 17.3008C2.11193 17.4072 1.56938 17.4433 1.02979 17.4082L0.531738 17.376L0.660645 15.3799L1.15967 15.4131C1.51713 15.4363 1.87456 15.4108 2.17822 15.3545C2.42938 15.2737 2.66192 15.1544 2.83838 15.0254C3.16098 14.7235 3.41786 14.3592 3.59521 13.9551V10.4307H2.59521V8.4502H3.59521L3.59521 3.9668C3.41748 3.56071 3.16277 3.19818 2.87256 2.92383C2.65906 2.7645 2.42376 2.64405 2.21826 2.5752C1.86969 2.50813 1.51399 2.48595 1.15967 2.50879L0.660645 2.54102L0.531738 0.544922L1.03076 0.512695C1.57226 0.477772 2.11506 0.514085 2.69385 0.632813L2.71729 0.637695L2.74072 0.645508C3.23416 0.798151 3.69508 1.03606 4.13818 1.37598L4.15576 1.38965L4.17139 1.4043C4.32236 1.54302 4.46502 1.6901 4.59814 1.84473C4.7488 1.67947 4.91143 1.5222 5.08643 1.375L5.11182 1.35547C5.51411 1.05893 5.95627 0.824292 6.49365 0.637695L6.52588 0.626953L6.56006 0.620117C7.08574 0.515334 7.62274 0.479121 8.15771 0.512695L8.65674 0.543945L8.53174 2.54004Z" fill="black" stroke="white"/>
</svg>
