<svg width="19" height="33" viewBox="0 0 19 33" fill="none" xmlns="http://www.w3.org/2000/svg">
<g opacity="0.18">
<g opacity="0.18">
<g opacity="0.18">
<path opacity="0.18" d="M9.5 14.1001C4.5 14.1001 0.5 18.1001 0.5 23.1001C0.5 28.1001 4.5 32.1001 9.5 32.1001C14.5 32.1001 18.5 28.1001 18.5 23.1001C18.5 18.1001 14.5 14.1001 9.5 14.1001ZM9.5 29.1001C6.2 29.1001 3.5 26.4001 3.5 23.1001C3.5 22.0001 3.8 20.9001 4.3 20.1001L12.5 28.3001C11.7 28.8001 10.6 29.1001 9.5 29.1001ZM14.8 26.0001L6.6 17.8001C7.5 17.3001 8.5 17.0001 9.7 17.0001C13 17.0001 15.7 19.7001 15.7 23.0001C15.6 24.1001 15.3 25.2001 14.8 26.0001Z" stroke="#231F20"/>
</g>
</g>
</g>
<path d="M9.5 14.6001C4.8 14.6001 1 18.4001 1 23.1001C1 27.8001 4.8 31.6001 9.5 31.6001C14.2 31.6001 18 27.8001 18 23.1001C18 18.4001 14.2 14.6001 9.5 14.6001ZM12.8 28.7001C11.8 29.3001 10.7 29.6001 9.5 29.6001C5.9 29.6001 3 26.7001 3 23.1001C3 21.9001 3.3 20.8001 3.9 19.8001L4.2 19.2001L13.3 28.3001L12.8 28.7001ZM15.2 26.3001L14.9 26.9001L5.8 17.8001L6.4 17.5001C7.4 16.9001 8.5 16.6001 9.7 16.6001C13.3 16.6001 16.2 19.5001 16.2 23.1001C16.1 24.2001 15.8 25.3001 15.2 26.3001Z" fill="white"/>
<path d="M9.5 14.1001C14.4761 14.1001 18.5 18.124 18.5 23.1001C18.5 28.0762 14.4761 32.1001 9.5 32.1001C4.52386 32.1001 0.5 28.0762 0.5 23.1001C0.5 18.124 4.52386 14.1001 9.5 14.1001ZM4.3291 20.0571C3.77712 20.9771 3.5 21.988 3.5 23.1001C3.5 26.424 6.17614 29.1001 9.5 29.1001C10.6032 29.1001 11.6055 28.8259 12.5195 28.2827L12.5508 28.2583L4.33691 20.0435L4.3291 20.0571ZM9.7002 17.1001C8.58806 17.1001 7.57719 17.3772 6.65723 17.9292L6.64355 17.937L14.7627 26.0552L14.7715 26.0425C15.3214 25.1259 15.6027 24.1097 15.6992 23.0767C15.6867 19.7637 13.0161 17.1002 9.7002 17.1001Z" stroke="black" stroke-opacity="0.18"/>
<path d="M0 16V0L11.6 11.6H4.6L4.4 11.7L0 16Z" fill="white"/>
<path d="M1 2.3999V13.5999L4 10.6999L4.1 10.5999H9.2L1 2.3999Z" fill="black"/>
</svg>
