<svg width="22" height="22" viewBox="0 0 22 22" fill="none" xmlns="http://www.w3.org/2000/svg">
<path d="M10.75 13.75C11.5833 13.75 12.2917 13.4583 12.875 12.875C13.4583 12.2917 13.75 11.5833 13.75 10.75C13.75 9.91667 13.4583 9.20833 12.875 8.625C12.2917 8.04167 11.5833 7.75 10.75 7.75C9.91667 7.75 9.20833 8.04167 8.625 8.625C8.04167 9.20833 7.75 9.91667 7.75 10.75C7.75 11.5833 8.04167 12.2917 8.625 12.875C9.20833 13.4583 9.91667 13.75 10.75 13.75ZM10.75 15.25C9.5 15.25 8.43733 14.8127 7.562 13.938C6.68733 13.0627 6.25 12 6.25 10.75C6.25 9.5 6.68733 8.43733 7.562 7.562C8.43733 6.68733 9.5 6.25 10.75 6.25C12 6.25 13.0627 6.68733 13.938 7.562C14.8127 8.43733 15.25 9.5 15.25 10.75C15.25 12 14.8127 13.0627 13.938 13.938C13.0627 14.8127 12 15.25 10.75 15.25ZM0.75 11.5C0.533333 11.5 0.354 11.429 0.212 11.287C0.0706667 11.1457 0 10.9667 0 10.75C0 10.5333 0.0706667 10.354 0.212 10.212C0.354 10.0707 0.533333 10 0.75 10H3C3.21667 10 3.39567 10.0707 3.537 10.212C3.679 10.354 3.75 10.5333 3.75 10.75C3.75 10.9667 3.679 11.1457 3.537 11.287C3.39567 11.429 3.21667 11.5 3 11.5H0.75ZM18.5 11.5C18.2833 11.5 18.104 11.429 17.962 11.287C17.8207 11.1457 17.75 10.9667 17.75 10.75C17.75 10.5333 17.8207 10.354 17.962 10.212C18.104 10.0707 18.2833 10 18.5 10H20.75C20.9667 10 21.146 10.0707 21.288 10.212C21.4293 10.354 21.5 10.5333 21.5 10.75C21.5 10.9667 21.4293 11.1457 21.288 11.287C21.146 11.429 20.9667 11.5 20.75 11.5H18.5ZM10.75 3.75C10.5333 3.75 10.3543 3.679 10.213 3.537C10.071 3.39567 10 3.21667 10 3V0.75C10 0.533333 10.071 0.354 10.213 0.212C10.3543 0.0706667 10.5333 0 10.75 0C10.9667 0 11.146 0.0706667 11.288 0.212C11.4293 0.354 11.5 0.533333 11.5 0.75V3C11.5 3.21667 11.4293 3.39567 11.288 3.537C11.146 3.679 10.9667 3.75 10.75 3.75ZM10.75 21.5C10.5333 21.5 10.3543 21.4293 10.213 21.288C10.071 21.146 10 20.9667 10 20.75V18.5C10 18.2833 10.071 18.104 10.213 17.962C10.3543 17.8207 10.5333 17.75 10.75 17.75C10.9667 17.75 11.146 17.8207 11.288 17.962C11.4293 18.104 11.5 18.2833 11.5 18.5V20.75C11.5 20.9667 11.4293 21.146 11.288 21.288C11.146 21.4293 10.9667 21.5 10.75 21.5ZM4.75 5.8L3.5 4.575C3.35 4.425 3.279 4.24567 3.287 4.037C3.29567 3.829 3.36667 3.65 3.5 3.5C3.65 3.35 3.82933 3.275 4.038 3.275C4.246 3.275 4.425 3.35 4.575 3.5L5.8 4.75C5.95 4.9 6.025 5.075 6.025 5.275C6.025 5.475 5.95 5.65 5.8 5.8C5.66667 5.95 5.5 6.02067 5.3 6.012C5.1 6.004 4.91667 5.93333 4.75 5.8ZM16.925 18L15.7 16.75C15.55 16.6 15.475 16.425 15.475 16.225C15.475 16.025 15.55 15.85 15.7 15.7C15.8333 15.55 16 15.4793 16.2 15.488C16.4 15.496 16.5833 15.5667 16.75 15.7L18 16.925C18.15 17.075 18.221 17.254 18.213 17.462C18.2043 17.6707 18.1333 17.85 18 18C17.85 18.15 17.671 18.225 17.463 18.225C17.2543 18.225 17.075 18.15 16.925 18ZM15.7 5.8C15.55 5.66667 15.4793 5.5 15.488 5.3C15.496 5.1 15.5667 4.91667 15.7 4.75L16.925 3.5C17.075 3.35 17.2543 3.279 17.463 3.287C17.671 3.29567 17.85 3.36667 18 3.5C18.15 3.65 18.225 3.829 18.225 4.037C18.225 4.24567 18.15 4.425 18 4.575L16.75 5.8C16.6 5.95 16.425 6.025 16.225 6.025C16.025 6.025 15.85 5.95 15.7 5.8ZM3.5 18C3.35 17.85 3.275 17.6707 3.275 17.462C3.275 17.254 3.35 17.075 3.5 16.925L4.75 15.7C4.9 15.55 5.075 15.475 5.275 15.475C5.475 15.475 5.65 15.55 5.8 15.7C5.95 15.8333 6.021 16 6.013 16.2C6.00433 16.4 5.93333 16.5833 5.8 16.75L4.575 18C4.425 18.15 4.246 18.225 4.038 18.225C3.82933 18.225 3.65 18.15 3.5 18Z" fill="white"/>
</svg>
